<mxfile host="Electron" modified="2024-05-30T05:01:05.685Z" agent="Mozilla/5.0 (Macintosh; Intel Mac OS X 10_15_7) AppleWebKit/537.36 (KHTML, like Gecko) draw.io/24.4.8 Chrome/124.0.6367.207 Electron/30.0.6 Safari/537.36" etag="2pxkPPPyHHuISmhRngx3" version="24.4.8" type="device">
  <diagram name="第 1 页" id="nGFu9D_AhwtQc-8zZwIC">
    <mxGraphModel dx="1728" dy="674" grid="1" gridSize="10" guides="1" tooltips="1" connect="1" arrows="1" fold="1" page="1" pageScale="1" pageWidth="827" pageHeight="1169" math="0" shadow="0">
      <root>
        <mxCell id="0" />
        <mxCell id="1" parent="0" />
        <mxCell id="QlW6k6h92Zlr6ATB8lqt-1" value="&lt;font style=&quot;font-size: 16px;&quot;&gt;saturn-console&lt;/font&gt;" style="rounded=1;whiteSpace=wrap;html=1;fillColor=#dae8fc;strokeColor=#6c8ebf;" vertex="1" parent="1">
          <mxGeometry x="-120" y="140" width="120" height="60" as="geometry" />
        </mxCell>
        <mxCell id="QlW6k6h92Zlr6ATB8lqt-2" value="" style="rounded=0;whiteSpace=wrap;html=1;fillColor=#f5f5f5;strokeColor=#666666;fontColor=#333333;" vertex="1" parent="1">
          <mxGeometry x="100" y="90" width="480" height="160" as="geometry" />
        </mxCell>
        <mxCell id="QlW6k6h92Zlr6ATB8lqt-3" value="&lt;font style=&quot;font-size: 16px;&quot;&gt;saturn-executor&lt;/font&gt;" style="ellipse;whiteSpace=wrap;html=1;fillColor=#fff2cc;strokeColor=#d6b656;" vertex="1" parent="1">
          <mxGeometry x="130" y="130" width="120" height="80" as="geometry" />
        </mxCell>
        <mxCell id="QlW6k6h92Zlr6ATB8lqt-4" value="&lt;font style=&quot;font-size: 16px;&quot;&gt;Service Process&lt;/font&gt;" style="rounded=1;whiteSpace=wrap;html=1;fillColor=#d5e8d4;strokeColor=#82b366;" vertex="1" parent="1">
          <mxGeometry x="430" y="140" width="120" height="60" as="geometry" />
        </mxCell>
        <mxCell id="QlW6k6h92Zlr6ATB8lqt-5" value="&lt;font style=&quot;font-size: 12px;&quot;&gt;Scheduled&lt;/font&gt;" style="endArrow=classic;html=1;exitX=1;exitY=0.5;exitDx=0;exitDy=0;entryX=0;entryY=0.5;entryDx=0;entryDy=0;" edge="1" parent="1" source="QlW6k6h92Zlr6ATB8lqt-1" target="QlW6k6h92Zlr6ATB8lqt-3">
          <mxGeometry width="50" height="50" relative="1" as="geometry">
            <mxPoint x="10" y="330" as="sourcePoint" />
            <mxPoint x="60" y="280" as="targetPoint" />
          </mxGeometry>
        </mxCell>
        <mxCell id="QlW6k6h92Zlr6ATB8lqt-6" value="&lt;font style=&quot;font-size: 12px;&quot;&gt;Linux UDS&amp;nbsp;Notification&lt;/font&gt;" style="endArrow=classic;html=1;exitX=1;exitY=0;exitDx=0;exitDy=0;entryX=0;entryY=0.25;entryDx=0;entryDy=0;edgeStyle=orthogonalEdgeStyle;" edge="1" parent="1" source="QlW6k6h92Zlr6ATB8lqt-3" target="QlW6k6h92Zlr6ATB8lqt-4">
          <mxGeometry x="-0.0062" width="50" height="50" relative="1" as="geometry">
            <mxPoint x="270" y="200" as="sourcePoint" />
            <mxPoint x="320" y="150" as="targetPoint" />
            <mxPoint as="offset" />
          </mxGeometry>
        </mxCell>
        <mxCell id="QlW6k6h92Zlr6ATB8lqt-7" value="&lt;font style=&quot;font-size: 12px;&quot;&gt;Windows HTTP&amp;nbsp;Notification&lt;/font&gt;" style="endArrow=classic;html=1;exitX=1;exitY=1;exitDx=0;exitDy=0;entryX=0;entryY=0.75;entryDx=0;entryDy=0;edgeStyle=orthogonalEdgeStyle;" edge="1" parent="1" source="QlW6k6h92Zlr6ATB8lqt-3" target="QlW6k6h92Zlr6ATB8lqt-4">
          <mxGeometry width="50" height="50" relative="1" as="geometry">
            <mxPoint x="280" y="240" as="sourcePoint" />
            <mxPoint x="330" y="190" as="targetPoint" />
          </mxGeometry>
        </mxCell>
      </root>
    </mxGraphModel>
  </diagram>
</mxfile>
